<?xml version="1.0" encoding="UTF-8" standalone="no"?>
<!-- Created with Inkscape (http://www.inkscape.org/) -->

<svg
   xmlns:dc="http://purl.org/dc/elements/1.1/"
   xmlns:cc="http://creativecommons.org/ns#"
   xmlns:rdf="http://www.w3.org/1999/02/22-rdf-syntax-ns#"
   xmlns:svg="http://www.w3.org/2000/svg"
   xmlns="http://www.w3.org/2000/svg"
   xmlns:sodipodi="http://sodipodi.sourceforge.net/DTD/sodipodi-0.dtd"
   xmlns:inkscape="http://www.inkscape.org/namespaces/inkscape"
   width="400"
   height="400"
   id="svg4525"
   version="1.1"
   inkscape:version="0.47pre4 r22446"
   sodipodi:docname="contact_not.svg"
   inkscape:export-filename="/home/shamansir/Workspace/vimeoid/apk/res/drawable/contact_not.png"
   inkscape:export-xdpi="10.8"
   inkscape:export-ydpi="10.8">
  <defs
     id="defs4527">
    <inkscape:perspective
       sodipodi:type="inkscape:persp3d"
       inkscape:vp_x="0 : 526.18109 : 1"
       inkscape:vp_y="0 : 1000 : 0"
       inkscape:vp_z="744.09448 : 526.18109 : 1"
       inkscape:persp3d-origin="372.04724 : 350.78739 : 1"
       id="perspective4533" />
    <inkscape:perspective
       id="perspective4517"
       inkscape:persp3d-origin="0.5 : 0.33333333 : 1"
       inkscape:vp_z="1 : 0.5 : 1"
       inkscape:vp_y="0 : 1000 : 0"
       inkscape:vp_x="0 : 0.5 : 1"
       sodipodi:type="inkscape:persp3d" />
  </defs>
  <sodipodi:namedview
     id="base"
     pagecolor="#ffffff"
     bordercolor="#666666"
     borderopacity="1.0"
     inkscape:pageopacity="0.0"
     inkscape:pageshadow="2"
     inkscape:zoom="1.14"
     inkscape:cx="69.736842"
     inkscape:cy="200"
     inkscape:document-units="px"
     inkscape:current-layer="g4550"
     showgrid="false"
     inkscape:window-width="1366"
     inkscape:window-height="695"
     inkscape:window-x="0"
     inkscape:window-y="25"
     inkscape:window-maximized="1" />
  <metadata
     id="metadata4530">
    <rdf:RDF>
      <cc:Work
         rdf:about="">
        <dc:format>image/svg+xml</dc:format>
        <dc:type
           rdf:resource="http://purl.org/dc/dcmitype/StillImage" />
        <dc:title></dc:title>
      </cc:Work>
    </rdf:RDF>
  </metadata>
  <g
     inkscape:label="Layer 1"
     inkscape:groupmode="layer"
     id="layer1"
     transform="translate(0,-652.36218)">
    <g
       id="g4550"
       transform="matrix(4.7333575,0,0,4.7333575,-1148.5532,-576.12438)">
      <path
         transform="matrix(0.95739428,0,0,0.95739428,242.68438,256.93717)"
         d="m 82.157677,45.954357 a 36.825726,36.825726 0 1 1 -73.6514514,0 36.825726,36.825726 0 1 1 73.6514514,0 z"
         sodipodi:ry="36.825726"
         sodipodi:rx="36.825726"
         sodipodi:cy="45.954357"
         sodipodi:cx="45.331951"
         id="path3963"
         style="fill:none;stroke:#003445;stroke-width:2.74540448;stroke-miterlimit:4;stroke-opacity:1;stroke-dasharray:none"
         sodipodi:type="arc" />
      <path
         transform="matrix(1.1621622,0,0,1.1621622,231.79481,263.60043)"
         d="m 35.684648,37.033195 c 0,2.119766 -1.718409,3.838175 -3.838174,3.838175 -2.119765,0 -3.838175,-1.718409 -3.838175,-3.838175 0,-2.119765 1.71841,-3.838174 3.838175,-3.838174 2.119765,0 3.838174,1.718409 3.838174,3.838174 z"
         sodipodi:ry="3.8381743"
         sodipodi:rx="3.8381743"
         sodipodi:cy="37.033195"
         sodipodi:cx="31.846474"
         id="path4481"
         style="fill:none;fill-opacity:1;fill-rule:nonzero;stroke:#003445;stroke-opacity:1;stroke-width:2.18144965;stroke-miterlimit:4;stroke-dasharray:none"
         sodipodi:type="arc" />
      <path
         transform="matrix(1.1621622,0,0,1.1621622,265.30103,263.49669)"
         d="m 35.684648,37.033195 c 0,2.119766 -1.718409,3.838175 -3.838174,3.838175 -2.119765,0 -3.838175,-1.718409 -3.838175,-3.838175 0,-2.119765 1.71841,-3.838174 3.838175,-3.838174 2.119765,0 3.838174,1.718409 3.838174,3.838174 z"
         sodipodi:ry="3.8381743"
         sodipodi:rx="3.8381743"
         sodipodi:cy="37.033195"
         sodipodi:cx="31.846474"
         id="path4481-1"
         style="fill:none;fill-opacity:1;fill-rule:nonzero;stroke:#003445;stroke-opacity:1;stroke-width:2.18144965;stroke-miterlimit:4;stroke-dasharray:none"
         sodipodi:type="arc" />
      <path
         sodipodi:end="3.1095065"
         sodipodi:start="0"
         transform="matrix(0.9096432,0,0,1.0439561,239.39217,238.53563)"
         d="m 68.257263,74.377594 c 0,5.213476 -7.709619,9.439834 -17.219917,9.439834 -9.295235,0 -16.912857,-4.044041 -17.211054,-9.136998 l 17.211054,-0.302836 z"
         sodipodi:ry="9.4398336"
         sodipodi:rx="17.219917"
         sodipodi:cy="74.377594"
         sodipodi:cx="51.037346"
         id="path4507"
         style="fill:none;fill-opacity:1;fill-rule:nonzero;stroke:#003445;stroke-opacity:1;stroke-width:2.6015686;stroke-miterlimit:4;stroke-dasharray:none"
         sodipodi:type="arc" />
      <path
         sodipodi:type="arc"
         style="fill:none;stroke:#003445;stroke-width:12;stroke-miterlimit:4;stroke-opacity:1;stroke-dasharray:none"
         id="path4360"
         sodipodi:cx="175.8772"
         sodipodi:cy="167.10527"
         sodipodi:rx="140.78947"
         sodipodi:ry="140.78947"
         d="m 316.66667,167.10527 a 140.78947,140.78947 0 1 1 -281.578947,0 140.78947,140.78947 0 1 1 281.578947,0 z"
         transform="matrix(0.21821027,0,0,0.21821027,247.63788,264.58603)" />
    </g>
  </g>
</svg>
