<?xml version="1.0" encoding="UTF-8" standalone="no"?>
<!-- Created with Inkscape (http://www.inkscape.org/) -->

<svg
   xmlns:dc="http://purl.org/dc/elements/1.1/"
   xmlns:cc="http://creativecommons.org/ns#"
   xmlns:rdf="http://www.w3.org/1999/02/22-rdf-syntax-ns#"
   xmlns:svg="http://www.w3.org/2000/svg"
   xmlns="http://www.w3.org/2000/svg"
   xmlns:sodipodi="http://sodipodi.sourceforge.net/DTD/sodipodi-0.dtd"
   xmlns:inkscape="http://www.inkscape.org/namespaces/inkscape"
   version="1.0"
   width="80.580002"
   height="70.839996"
   id="svg2"
   inkscape:version="0.47pre4 r22446"
   sodipodi:docname="Vimeo_Logo.svg">
  <metadata
     id="metadata8">
    <rdf:RDF>
      <cc:Work
         rdf:about="">
        <dc:format>image/svg+xml</dc:format>
        <dc:type
           rdf:resource="http://purl.org/dc/dcmitype/StillImage" />
      </cc:Work>
    </rdf:RDF>
  </metadata>
  <sodipodi:namedview
     pagecolor="#ffffff"
     bordercolor="#666666"
     borderopacity="1"
     objecttolerance="10"
     gridtolerance="10"
     guidetolerance="10"
     inkscape:pageopacity="0"
     inkscape:pageshadow="2"
     inkscape:window-width="1185"
     inkscape:window-height="655"
     id="namedview6"
     showgrid="false"
     inkscape:zoom="9.451298"
     inkscape:cx="44.931516"
     inkscape:cy="64.557616"
     inkscape:window-x="0"
     inkscape:window-y="25"
     inkscape:window-maximized="0"
     inkscape:current-layer="layer1" />
  <defs
     id="defs4">
    <inkscape:perspective
       sodipodi:type="inkscape:persp3d"
       inkscape:vp_x="0 : 46.627293 : 1"
       inkscape:vp_y="0 : 1000 : 0"
       inkscape:vp_z="325 : 46.627293 : 1"
       inkscape:persp3d-origin="162.5 : 31.084862 : 1"
       id="perspective10" />
  </defs>
  <g
     transform="translate(-121.18692,206.34146)"
     id="layer1">
    <path
       d="m 196.94431,-182.29785 c -1.0375,3.1366 -3.3163,7.7017 -5.9451,11.9101 -2.8964,4.6367 -7.3188,10.7058 -11.1177,15.2573 -7.4362,8.9094 -13.8168,13.7446 -19.4452,14.7355 -1.0513,0.1851 -2.6147,0.1745 -3.4054,-0.0231 -3.4883,-0.8718 -6.3838,-4.3996 -8.8947,-10.8374 -0.2124,-0.5444 -1.2684,-4.3556 -3.2791,-11.8345 -1.6312,-6.0674 -3.0921,-11.4715 -3.2464,-12.0091 -1.0117,-3.5254 -2.342,-6.7567 -3.5031,-8.5098 -0.892,-1.3466 -2.0099,-2.2236 -2.957,-2.3195 -0.3839,-0.0389 -0.4458,-0.0224 -1.0419,0.2776 -0.6234,0.3136 -2.4205,1.4691 -3.9594,2.5457 -0.4306,0.3013 -0.8204,0.5692 -0.8662,0.5955 -0.0533,0.0305 -0.6658,-0.7123 -1.7035,-2.066 -0.8911,-1.1625 -1.6634,-2.164 -1.7162,-2.2256 -0.0849,-0.099 0.0474,-0.2402 1.1448,-1.2219 1.8325,-1.6392 5.5482,-5.0089 7.4172,-6.7264 3.3696,-3.0966 5.3238,-4.6866 7.5784,-6.1662 2.4116,-1.5827 3.9359,-2.1856 5.7252,-2.2646 4.5019,-0.1986 7.4917,2.501 9.1117,8.2273 0.3868,1.3675 0.5624,2.2811 1.1533,6.0006 1.5411,9.7016 2.192,13.1987 3.2089,17.2396 1.2092,4.8056 2.5532,7.6108 3.9836,8.315 0.3852,0.1896 0.503,0.2159 0.8507,0.1893 1.5653,-0.1194 3.8028,-2.5628 6.8733,-7.506 2.5311,-4.0747 4.0631,-7.3565 4.6066,-9.8684 0.1357,-0.6271 0.1585,-0.9421 0.1614,-2.2313 0.003,-1.2473 -0.0182,-1.5779 -0.1239,-1.955 -0.358,-1.2766 -1.0268,-2.1298 -2.0721,-2.6435 -0.8447,-0.4151 -1.4125,-0.5227 -2.7579,-0.5227 -1.5749,0 -2.9564,0.2603 -4.5307,0.8535 -0.4416,0.1664 -0.7131,0.2368 -0.7253,0.1882 -0.0107,-0.0428 0.1529,-0.5853 0.3635,-1.2055 1.2643,-3.7228 2.7468,-6.5986 4.6889,-9.0954 0.704,-0.905 2.0964,-2.3375 2.9193,-3.0033 1.374,-1.1117 3.2051,-2.1591 4.8138,-2.7535 3.5237,-1.3019 8.3106,-1.5251 11.3577,-0.5293 4.1441,1.3542 6.3331,4.8271 6.8101,10.8043 l -1.4776,10.3785 z"
       id="path2933"
       style="fill:#1ca7cc;fill-opacity:1"
       sodipodi:nodetypes="csssssssssssssssssssssssssssssssssssscc" />
  </g>
</svg>
