<?xml version="1.0" encoding="UTF-8" standalone="no"?>
<!-- Created with Inkscape (http://www.inkscape.org/) -->
<svg
   xmlns:svg="http://www.w3.org/2000/svg"
   xmlns="http://www.w3.org/2000/svg"
   version="1.0"
   width="325"
   height="93.254585"
   id="svg2">
  <defs
     id="defs4" />
  <g
     transform="translate(-106.69145,-194.65581)"
     id="layer1">
    <path
       d="M 392.42839,287.88848 C 385.99379,287.46488 380.99019,285.46848 377.04479,281.75068 C 375.43979,280.23828 373.74689,277.95298 372.76529,275.97388 C 372.59939,275.63928 372.44159,275.36548 372.41459,275.36548 C 372.38769,275.36548 371.97839,275.60598 371.50509,275.89998 C 370.45859,276.54988 367.30569,278.36058 365.96649,279.08068 C 357.18349,283.80368 348.14349,286.59588 339.01599,287.40508 C 336.09559,287.66408 332.66829,287.70858 330.56769,287.51498 C 325.89829,287.08458 322.10449,285.74968 319.03499,283.45708 C 318.26699,282.88358 316.44379,281.10488 315.85799,280.35758 C 315.32329,279.67568 314.62229,278.64668 314.23289,277.97228 L 313.90379,277.40228 L 312.91479,278.25388 C 307.49009,282.92478 301.86069,285.84478 296.28609,286.87918 C 293.59789,287.37808 290.71889,287.43308 288.70609,287.02408 C 285.90459,286.45498 283.87019,284.99918 282.71239,282.73538 C 281.38239,280.13458 281.06299,276.60078 281.69919,271.52538 C 282.07979,268.48918 282.40619,266.86458 283.75069,261.31538 C 284.46589,258.36328 285.09299,254.93718 285.32229,252.72828 C 285.45839,251.41768 285.45979,249.49728 285.32529,248.60518 C 285.02749,246.62958 284.29329,245.48598 282.98529,244.96048 C 282.52139,244.77408 281.33729,244.73518 280.75109,244.88708 C 278.32109,245.51678 275.50139,248.47348 272.32629,253.72128 C 267.94689,260.95938 265.54309,267.75428 264.89159,274.73708 C 264.75549,276.19598 264.77529,280.31368 264.92489,281.64928 C 265.09389,283.15888 265.40959,284.66628 265.78019,285.73378 C 265.95349,286.23298 266.11449,286.70118 266.13789,286.77418 C 266.17929,286.90338 266.12009,286.90588 263.95279,286.86578 C 261.54049,286.82118 260.01959,286.70208 258.35919,286.42758 C 252.34669,285.43378 248.94289,283.02248 247.45869,278.70548 C 246.56429,276.10368 246.31669,273.29338 246.61419,269.11658 C 246.81889,266.24098 247.22629,263.86568 248.11089,260.38908 C 248.92889,257.17438 249.32419,255.15208 249.58469,252.84848 C 249.73119,251.55308 249.75119,249.13518 249.62089,248.48778 C 249.19599,246.37778 248.20829,245.25128 246.45739,244.87998 C 246.10259,244.80478 245.71039,244.78078 245.17769,244.80178 C 244.53179,244.82718 244.32429,244.86558 243.87229,245.04358 C 241.60149,245.93778 239.17659,248.90098 236.62839,253.89578 C 233.79339,259.45258 232.03469,265.37448 231.42379,271.42068 C 231.09339,274.69128 231.09589,279.34868 231.42969,282.41728 C 231.60869,284.06298 231.97899,285.83918 232.33799,286.77478 C 232.38789,286.90458 232.33899,286.90688 230.43999,286.86398 C 227.60059,286.79978 225.74549,286.57628 223.67309,286.04888 C 220.60199,285.26738 218.12749,283.88248 216.42289,281.99138 C 215.26519,280.70708 214.26609,278.79798 213.68619,276.76188 C 213.58219,276.39708 213.48609,276.08618 213.47239,276.07108 C 213.45879,276.05598 213.15629,276.30918 212.80019,276.63388 C 207.69759,281.28618 203.06859,284.20598 198.15389,285.87208 C 195.43789,286.79288 192.46709,287.30468 189.83869,287.30468 C 185.96449,287.30468 183.18579,285.96328 181.37809,283.22028 C 180.65839,282.12828 180.25859,281.20468 179.89489,279.79428 C 179.19489,277.07978 179.32229,273.76468 180.32399,268.62788 C 180.98149,265.25628 181.65379,262.53448 183.21289,256.93298 C 184.33339,252.90698 185.10049,250.07778 185.56959,248.24038 C 185.93919,246.79278 185.96139,246.65808 185.95559,245.90138 C 185.93639,243.42528 184.93459,241.98728 183.21239,241.96368 C 182.72879,241.95708 182.64559,241.97868 182.12489,242.24598 C 181.35639,242.64038 180.74599,243.03518 179.25239,244.10388 L 177.98059,245.01398 L 177.79339,245.57988 C 176.75589,248.71648 174.47709,253.28158 171.84829,257.48998 C 168.95189,262.12668 164.52949,268.19578 160.73059,272.74728 C 153.29439,281.65668 146.91379,286.49188 141.28539,287.48278 C 140.23409,287.66788 138.67069,287.65728 137.87999,287.45968 C 134.39169,286.58788 131.49619,283.06008 128.98529,276.62228 C 128.77289,276.07788 127.71689,272.26668 125.70619,264.78778 C 124.07499,258.72038 122.61409,253.31628 122.45979,252.77868 C 121.44809,249.25328 120.11779,246.02198 118.95669,244.26888 C 118.06469,242.92228 116.94679,242.04528 115.99969,241.94938 C 115.61579,241.91048 115.55389,241.92698 114.95779,242.22698 C 114.33439,242.54058 112.53729,243.69608 110.99839,244.77268 C 110.56779,245.07398 110.17799,245.34188 110.13219,245.36818 C 110.07889,245.39868 109.46639,244.65588 108.42869,243.30218 C 107.53759,242.13968 106.76529,241.13818 106.71249,241.07658 C 106.62759,240.97758 106.75989,240.83638 107.85729,239.85468 C 109.68979,238.21548 113.40549,234.84578 115.27449,233.12828 C 118.64409,230.03168 120.59829,228.44168 122.85289,226.96208 C 125.26449,225.37938 126.78879,224.77648 128.57809,224.69748 C 133.07999,224.49888 136.06979,227.19848 137.68979,232.92478 C 138.07659,234.29228 138.25219,235.20588 138.84309,238.92538 C 140.38419,248.62698 141.03509,252.12408 142.05199,256.16498 C 143.26119,260.97058 144.60519,263.77578 146.03559,264.47998 C 146.42079,264.66958 146.53859,264.69588 146.88629,264.66928 C 148.45159,264.54988 150.68909,262.10648 153.75959,257.16328 C 156.29069,253.08858 157.82269,249.80678 158.36619,247.29488 C 158.50189,246.66778 158.52469,246.35278 158.52759,245.06358 C 158.53039,243.81628 158.50939,243.48568 158.40369,243.10858 C 158.04569,241.83198 157.37689,240.97878 156.33159,240.46508 C 155.48689,240.04998 154.91909,239.94238 153.57369,239.94238 C 151.99879,239.94238 150.61729,240.20268 149.04299,240.79588 C 148.60139,240.96228 148.32989,241.03268 148.31769,240.98408 C 148.30699,240.94128 148.47059,240.39878 148.68119,239.77858 C 149.94549,236.05578 151.42799,233.17998 153.37009,230.68318 C 154.07409,229.77818 155.46649,228.34568 156.28939,227.67988 C 157.66339,226.56818 159.49449,225.52078 161.10319,224.92638 C 164.62689,223.62448 169.41379,223.40128 172.46089,224.39708 C 176.60499,225.75128 178.79399,229.22418 179.27099,235.20138 L 179.31699,235.77738 L 179.64529,235.48068 C 179.82589,235.31748 181.05579,234.18818 182.37849,232.97108 C 187.82369,227.96028 190.99159,225.69748 193.65049,224.91958 C 194.16409,224.76938 194.47769,224.72848 195.36729,224.69588 C 198.69369,224.57398 201.00029,225.63818 202.59199,228.02918 C 204.04259,230.20818 204.69849,233.04008 204.50409,236.28548 C 204.44849,237.21428 204.34339,237.84438 203.74329,240.84678 C 202.63039,246.41548 201.49159,252.84428 200.24459,260.59848 C 199.82949,263.17998 199.81909,263.27738 199.85919,264.20278 C 199.95989,266.52248 200.44969,267.95838 201.50219,269.01908 C 201.89819,269.41818 202.15879,269.61188 202.55249,269.79948 C 203.48609,270.24428 204.82439,270.39628 205.73209,270.16058 C 206.25739,270.02418 207.34789,269.50518 208.20799,268.98228 C 209.76519,268.03548 213.13699,265.44488 213.19389,265.15148 C 213.21029,265.06658 213.32299,264.22738 213.44429,263.28658 C 213.56559,262.34578 213.97379,259.72228 214.35149,257.45658 C 215.07989,253.08758 215.45349,250.49578 215.67489,248.27528 C 215.85419,246.47728 215.98449,244.24738 215.94149,243.71228 C 215.84339,242.49028 215.05169,241.84058 214.05519,242.16438 C 213.36169,242.38968 211.90999,243.27908 209.89349,244.71398 C 209.05999,245.30708 208.87589,245.41138 208.80159,245.33278 C 208.38799,244.89488 204.99749,240.98688 205.00199,240.95298 C 205.00509,240.92898 205.18579,240.75498 205.40339,240.56638 C 206.00899,240.04178 209.07129,237.18638 212.74629,233.71958 C 217.23919,229.48128 218.58009,228.29158 220.44579,226.88848 C 221.86029,225.82468 222.95779,225.18278 223.88939,224.87428 C 224.29699,224.73938 224.51129,224.71558 225.27899,224.71998 C 225.82559,224.72318 226.38109,224.76858 226.67539,224.83408 C 228.61249,225.26528 230.13099,226.36458 231.38879,228.24618 C 232.68509,230.18548 233.47699,232.24118 233.84469,234.62108 C 234.04469,235.91648 234.06349,238.44728 233.88079,239.49468 C 233.81549,239.86868 233.76209,240.21248 233.76209,240.25878 C 233.76209,240.30508 233.97419,240.03048 234.23339,239.64838 C 236.03039,237.00008 238.55279,234.37378 241.36259,232.22558 C 242.14969,231.62388 243.95829,230.42128 244.75879,229.96748 C 248.74549,227.70698 253.16939,226.44178 257.57079,226.30308 C 261.67209,226.17388 264.75109,227.16098 266.85689,229.27998 C 267.64939,230.07748 268.26789,230.96138 268.77869,232.02608 C 269.72579,234.00048 270.17229,236.13588 270.26729,239.14488 L 270.31299,240.59218 L 271.53479,239.51728 C 272.32049,238.82608 273.03089,238.12308 273.52469,237.54808 C 274.47579,236.44088 276.32179,234.54078 277.43459,233.52368 C 281.90699,229.43598 286.63259,227.10808 291.78269,226.45548 C 293.02359,226.29828 295.12719,226.24598 296.18129,226.34618 C 299.22579,226.63558 301.56579,227.64188 303.20029,229.36448 C 305.71729,232.01708 306.76349,235.56038 306.51349,240.58518 C 306.33409,244.18928 305.78099,247.55118 304.27179,254.20998 C 302.37509,262.57888 302.09809,264.34058 302.32029,266.62208 C 302.49639,268.43018 302.87329,269.21488 303.80359,269.71078 C 304.48679,270.07488 305.08129,270.20428 306.27029,270.24758 C 307.27409,270.28418 307.34089,270.27788 307.87619,270.09798 C 308.53359,269.87698 309.43689,269.41358 310.33939,268.83428 C 310.86399,268.49758 310.98109,268.39178 310.95469,268.27878 C 310.84639,267.81568 310.75869,265.35888 310.79639,263.84518 C 310.91809,258.95238 311.97179,254.72088 314.19519,250.19538 C 315.71169,247.10868 317.52219,244.35248 319.92829,241.46778 C 326.96079,233.03648 335.34829,227.82948 344.77609,226.04198 C 348.62649,225.31198 353.15949,225.12348 356.50589,225.55418 C 362.85399,226.37118 366.82399,229.11668 368.59239,233.91288 C 369.16889,235.47658 369.48729,237.21458 369.54219,239.09798 C 369.59989,241.07828 369.41559,242.34598 368.79669,244.22568 C 367.41739,248.41528 364.28529,252.58348 359.20339,256.99248 C 353.23699,262.16908 345.87909,265.78088 337.51469,267.63898 C 336.37029,267.89328 334.25019,268.31368 334.11259,268.31368 C 334.02969,268.31368 334.82129,269.22758 335.31349,269.70008 C 336.89499,271.21838 338.84829,272.09128 341.28509,272.36878 C 342.21879,272.47508 345.61889,272.41458 347.21979,272.26318 C 353.92409,271.62898 360.49379,269.83248 368.21449,266.52198 L 369.78729,265.84758 L 369.74599,265.45728 C 369.53129,263.42648 369.52699,260.53338 369.73569,258.50358 C 370.28549,253.15678 372.12229,248.12778 375.26919,243.35298 C 376.54029,241.42438 377.67589,239.96558 379.48159,237.94188 C 383.34409,233.61318 387.00959,230.72088 391.52069,228.44218 C 396.66049,225.84598 402.08499,224.54618 408.31249,224.41838 C 410.96279,224.36398 412.76119,224.50458 414.87259,224.93128 C 417.85159,225.53338 420.59489,226.74068 422.89009,228.45968 C 424.27419,229.49638 425.99189,231.32738 427.26599,233.12428 C 430.33569,237.45368 431.85559,243.14318 431.67739,249.63678 C 431.51479,255.56048 430.33019,260.84748 428.03889,265.87458 C 425.98779,270.37478 422.62039,275.02188 418.86929,278.52898 C 413.07249,283.94868 406.45169,286.94438 398.46399,287.76168 C 397.43189,287.86728 393.39469,287.95208 392.42839,287.88848 z M 397.38559,273.89248 C 401.58999,273.38248 405.30229,270.46648 408.47429,265.18218 C 411.72259,259.77088 413.33089,254.00178 413.17789,248.31048 C 413.11579,245.99968 412.83009,244.27978 412.19019,242.36488 C 411.60749,240.62088 411.01429,239.56528 410.21629,238.85218 C 409.37119,238.09688 408.60139,237.89628 406.99009,238.01138 C 405.16279,238.14198 403.55489,238.56688 401.99369,239.33178 C 399.02979,240.78398 396.57579,243.23538 394.27969,247.03778 C 391.30509,251.96388 389.73739,256.91368 389.38789,262.48368 C 389.20099,265.46338 389.65689,267.94028 390.82109,270.26878 C 391.63499,271.89668 392.69169,273.05208 393.83409,273.56318 C 394.69329,273.94758 395.96159,274.06518 397.38559,273.89248 z M 332.48099,261.63638 C 338.95019,259.05058 344.79829,254.47288 348.25329,249.29018 C 349.33019,247.67478 350.00969,246.14518 350.22399,244.85408 C 350.32569,244.24108 350.27539,243.08448 350.11829,242.42708 C 349.99349,241.90468 349.67489,241.25088 349.38289,240.91828 C 349.09239,240.58748 348.56169,240.25928 348.04009,240.08788 C 347.51689,239.91598 346.04779,239.88128 345.36959,240.02488 C 342.48179,240.63608 339.64149,242.84468 336.77999,246.70428 C 333.67209,250.89628 331.97449,254.84938 331.58199,258.80808 C 331.48079,259.82838 331.48679,261.95998 331.59079,261.95998 C 331.63509,261.95998 332.03569,261.81438 332.48099,261.63638 z M 193.93609,215.03938 C 192.33369,214.89548 190.70659,214.44058 189.65729,213.84318 C 189.07769,213.51328 188.17909,212.71438 187.78759,212.18108 C 187.22319,211.41218 186.81139,210.35968 186.60149,209.14938 C 186.43799,208.20708 186.45619,206.41558 186.63839,205.52138 C 187.00999,203.69698 188.00029,201.97858 189.68679,200.23138 C 192.83439,196.97058 196.56049,195.09178 200.62299,194.71708 C 203.11989,194.48678 204.92539,194.90008 206.45389,196.05178 C 207.89739,197.13948 209.21009,199.01228 209.71689,200.70688 C 209.96539,201.53758 210.02509,202.96928 209.85349,203.98208 C 209.45579,206.32968 208.14709,208.55658 205.85039,210.79378 C 203.41309,213.16788 200.81049,214.48518 197.66509,214.93688 C 196.74599,215.06888 194.84639,215.12108 193.93609,215.03938 z"
       id="path2933"
       style="fill:#1ca7cc;fill-opacity:1" />
  </g>
</svg>
