<?xml version="1.0" encoding="UTF-8" standalone="no"?>
<!-- Created with Inkscape (http://www.inkscape.org/) -->

<svg
   xmlns:dc="http://purl.org/dc/elements/1.1/"
   xmlns:cc="http://creativecommons.org/ns#"
   xmlns:rdf="http://www.w3.org/1999/02/22-rdf-syntax-ns#"
   xmlns:svg="http://www.w3.org/2000/svg"
   xmlns="http://www.w3.org/2000/svg"
   xmlns:xlink="http://www.w3.org/1999/xlink"
   xmlns:sodipodi="http://sodipodi.sourceforge.net/DTD/sodipodi-0.dtd"
   xmlns:inkscape="http://www.inkscape.org/namespaces/inkscape"
   width="800"
   height="480"
   id="svg2"
   version="1.1"
   inkscape:version="0.47pre4 r22446"
   sodipodi:docname="welcome.landscape.hdpi.svg"
   inkscape:export-filename="/home/shamansir/Workspace/vimeoid/apk/res/drawable-land-hdpi/welcome.png"
   inkscape:export-xdpi="90"
   inkscape:export-ydpi="90">
  <defs
     id="defs4">
    <linearGradient
       id="linearGradient3662">
      <stop
         style="stop-color:#5099d0;stop-opacity:1;"
         offset="0"
         id="stop3664" />
      <stop
         style="stop-color:#0086c9;stop-opacity:0.34782609;"
         offset="1"
         id="stop3666" />
    </linearGradient>
    <inkscape:perspective
       sodipodi:type="inkscape:persp3d"
       inkscape:vp_x="0 : 526.18109 : 1"
       inkscape:vp_y="0 : 1000 : 0"
       inkscape:vp_z="744.09448 : 526.18109 : 1"
       inkscape:persp3d-origin="372.04724 : 350.78739 : 1"
       id="perspective10" />
    <linearGradient
       inkscape:collect="always"
       xlink:href="#linearGradient3662"
       id="linearGradient3668"
       x1="-1.0526317"
       y1="267.36841"
       x2="318.94736"
       y2="266.3158"
       gradientUnits="userSpaceOnUse"
       gradientTransform="matrix(2.4999999,0,0,1,2.6315792,573.41481)" />
    <inkscape:perspective
       id="perspective3897"
       inkscape:persp3d-origin="0.5 : 0.33333333 : 1"
       inkscape:vp_z="1 : 0.5 : 1"
       inkscape:vp_y="0 : 1000 : 0"
       inkscape:vp_x="0 : 0.5 : 1"
       sodipodi:type="inkscape:persp3d" />
    <inkscape:perspective
       id="perspective4027"
       inkscape:persp3d-origin="0.5 : 0.33333333 : 1"
       inkscape:vp_z="1 : 0.5 : 1"
       inkscape:vp_y="0 : 1000 : 0"
       inkscape:vp_x="0 : 0.5 : 1"
       sodipodi:type="inkscape:persp3d" />
    <inkscape:perspective
       id="perspective2980"
       inkscape:persp3d-origin="0.5 : 0.33333333 : 1"
       inkscape:vp_z="1 : 0.5 : 1"
       inkscape:vp_y="0 : 1000 : 0"
       inkscape:vp_x="0 : 0.5 : 1"
       sodipodi:type="inkscape:persp3d" />
    <inkscape:perspective
       id="perspective2980-8"
       inkscape:persp3d-origin="0.5 : 0.33333333 : 1"
       inkscape:vp_z="1 : 0.5 : 1"
       inkscape:vp_y="0 : 1000 : 0"
       inkscape:vp_x="0 : 0.5 : 1"
       sodipodi:type="inkscape:persp3d" />
    <inkscape:perspective
       id="perspective2980-3"
       inkscape:persp3d-origin="0.5 : 0.33333333 : 1"
       inkscape:vp_z="1 : 0.5 : 1"
       inkscape:vp_y="0 : 1000 : 0"
       inkscape:vp_x="0 : 0.5 : 1"
       sodipodi:type="inkscape:persp3d" />
  </defs>
  <sodipodi:namedview
     id="base"
     pagecolor="#ffffff"
     bordercolor="#666666"
     borderopacity="1.0"
     inkscape:pageopacity="0.0"
     inkscape:pageshadow="2"
     inkscape:zoom="0.95"
     inkscape:cx="346.92146"
     inkscape:cy="212.17411"
     inkscape:document-units="px"
     inkscape:current-layer="layer1"
     showgrid="false"
     inkscape:snap-bbox="true"
     inkscape:window-width="1366"
     inkscape:window-height="695"
     inkscape:window-x="0"
     inkscape:window-y="25"
     inkscape:window-maximized="1" />
  <metadata
     id="metadata7">
    <rdf:RDF>
      <cc:Work
         rdf:about="">
        <dc:format>image/svg+xml</dc:format>
        <dc:type
           rdf:resource="http://purl.org/dc/dcmitype/StillImage" />
        <dc:title></dc:title>
      </cc:Work>
    </rdf:RDF>
  </metadata>
  <g
     inkscape:label="Layer 1"
     inkscape:groupmode="layer"
     id="layer1"
     transform="translate(0,-572.36218)">
    <rect
       style="fill:url(#linearGradient3668);fill-opacity:1;stroke:none"
       id="rect2888"
       width="800"
       height="480"
       x="0"
       y="572.36218" />
    <path
       sodipodi:type="arc"
       style="fill:#ffdc44;fill-opacity:1;fill-rule:nonzero;stroke:none"
       id="path3915"
       sodipodi:cx="31.578947"
       sodipodi:cy="62.105263"
       sodipodi:rx="142.10527"
       sodipodi:ry="142.10527"
       d="m 173.68422,62.105263 a 142.10527,142.10527 0 1 1 -284.21054,0 142.10527,142.10527 0 1 1 284.21054,0 z"
       transform="translate(408.42105,663.94112)" />
    <path
       d="m 247.73223,736.86897 c -4.47354,-0.2945 -7.9522,-1.68246 -10.69517,-4.26719 -1.11584,-1.05147 -2.2928,-2.64029 -2.97524,-4.01622 -0.11534,-0.23262 -0.22505,-0.42298 -0.24382,-0.42298 -0.0187,0 -0.30326,0.16721 -0.63231,0.3716 -0.72756,0.45184 -2.91956,1.71069 -3.85061,2.21133 -6.10622,3.28358 -12.39111,5.2248 -18.73683,5.78738 -2.03036,0.18007 -4.41312,0.21101 -5.87353,0.0764 -3.24631,-0.29923 -5.88388,-1.22729 -8.0179,-2.82118 -0.53393,-0.39872 -1.80148,-1.63532 -2.20875,-2.15487 -0.37174,-0.47408 -0.85909,-1.18947 -1.12982,-1.65834 l -0.2288,-0.39628 -0.68758,0.59206 c -3.77142,3.24736 -7.68516,5.27743 -11.5608,5.99658 -1.86892,0.34685 -3.87049,0.38509 -5.26985,0.10074 -1.9477,-0.39566 -3.36207,-1.40777 -4.16701,-2.98164 -0.92466,-1.80816 -1.14672,-4.26497 -0.70441,-7.79355 0.2646,-2.11086 0.49153,-3.24033 1.42626,-7.09831 0.49723,-2.05239 0.93321,-4.43433 1.09263,-5.97002 0.0946,-0.91117 0.0956,-2.2463 0.002,-2.86651 -0.20704,-1.3735 -0.71748,-2.16857 -1.62685,-2.53391 -0.32251,-0.12959 -1.14574,-0.15664 -1.55328,-0.051 -1.68941,0.43778 -3.64976,2.49338 -5.85719,6.14181 -3.0447,5.03216 -4.71589,9.75619 -5.16884,14.61085 -0.0946,1.01427 -0.0809,3.87703 0.0231,4.80558 0.1175,1.04952 0.33698,2.09751 0.59464,2.83967 0.12048,0.34706 0.23241,0.67257 0.24868,0.72332 0.0288,0.0898 -0.0124,0.0916 -1.51915,0.0637 -1.67711,-0.031 -2.73449,-0.11381 -3.88885,-0.30466 -4.18008,-0.69092 -6.54651,-2.36733 -7.57837,-5.36864 -0.62181,-1.80886 -0.79395,-3.76267 -0.58712,-6.66651 0.14231,-1.99921 0.42555,-3.65059 1.04055,-6.06763 0.5687,-2.23496 0.84353,-3.64093 1.02463,-5.24247 0.10185,-0.9006 0.11576,-2.5816 0.0252,-3.03169 -0.2954,-1.46694 -0.98208,-2.25012 -2.19936,-2.50826 -0.24667,-0.0523 -0.51934,-0.069 -0.88969,-0.0544 -0.44905,0.0177 -0.59331,0.0444 -0.90756,0.16811 -1.57873,0.62168 -3.26459,2.68179 -5.03618,6.15433 -1.97098,3.86326 -3.19369,7.98035 -3.6184,12.18386 -0.22971,2.27383 -0.22797,5.5118 0.004,7.64519 0.12444,1.14414 0.38189,2.37901 0.63147,3.02947 0.0347,0.0902 7e-4,0.0918 -1.31955,0.062 -1.97404,-0.0446 -3.26376,-0.20001 -4.70456,-0.56668 -2.13512,-0.54332 -3.85548,-1.50615 -5.04057,-2.8209 -0.80487,-0.89289 -1.49947,-2.22015 -1.90264,-3.63572 -0.0723,-0.25362 -0.13912,-0.46976 -0.14864,-0.48026 -0.01,-0.0105 -0.21976,0.16553 -0.46733,0.39127 -3.54749,3.23443 -6.76572,5.26437 -10.18258,6.42269 -1.88824,0.64017 -3.95364,0.99599 -5.78099,0.99599 -2.69346,0 -4.6253,-0.93258 -5.88207,-2.8396 -0.50036,-0.75919 -0.77831,-1.40131 -1.031173,-2.38187 -0.48666,-1.8872 -0.39809,-4.19196 0.298323,-7.76323 0.45712,-2.34404 0.92452,-4.23632 2.00846,-8.13066 0.77901,-2.79901 1.31232,-4.76595 1.63845,-6.04337 0.25696,-1.00642 0.27239,-1.10007 0.26836,-1.62615 -0.0134,-1.72146 -0.70983,-2.72121 -1.90716,-2.73761 -0.33621,-0.005 -0.39406,0.0104 -0.75606,0.19626 -0.53429,0.2742 -0.95866,0.54868 -1.997063,1.29167 l -0.88419,0.63273 -0.13015,0.39343 c -0.721302,2.18067 -2.305596,5.35447 -4.13322,8.28028 -2.013669,3.22358 -5.088261,7.44301 -7.729376,10.60736 -5.169882,6.19409 -9.605878,9.55568 -13.518919,10.24458 -0.730897,0.12869 -1.817822,0.12132 -2.367542,-0.0161 -2.425176,-0.6061 -4.438219,-3.05874 -6.183876,-7.5345 -0.147667,-0.37848 -0.881832,-3.02815 -2.279734,-8.22772 -1.134062,-4.21825 -2.149726,-7.97535 -2.257,-8.3491 -0.703366,-2.45097 -1.628232,-4.69747 -2.435466,-5.91629 -0.620146,-0.93619 -1.397346,-1.54591 -2.0558,-1.61258 -0.266899,-0.0271 -0.309934,-0.0156 -0.724361,0.19299 -0.433408,0.21803 -1.682808,1.02137 -2.7527,1.76985 -0.299367,0.20948 -0.570368,0.39573 -0.60221,0.41401 -0.03706,0.0212 -0.462885,-0.49521 -1.184327,-1.43635 -0.619521,-0.8082 -1.156448,-1.50448 -1.193156,-1.5473 -0.05903,-0.0688 0.03295,-0.167 0.795901,-0.84951 1.274012,-1.13962 3.857284,-3.48234 5.156671,-4.6764 2.342653,-2.15286 3.701274,-3.25827 5.268743,-4.28694 1.676621,-1.10034 2.736363,-1.5195 3.980341,-1.57442 3.129863,-0.13807 5.208466,1.73877 6.334741,5.71988 0.268916,0.95073 0.390998,1.58589 0.801811,4.1718 1.071421,6.74486 1.523947,9.17616 2.230928,11.98552 0.840674,3.341 1.775066,5.29127 2.769525,5.78085 0.267803,0.13182 0.349701,0.1501 0.591434,0.13161 1.088245,-0.083 2.643826,-1.78174 4.778536,-5.21841 1.759701,-2.83286 2.824796,-5.11447 3.202654,-6.86082 0.09434,-0.43598 0.110194,-0.65498 0.11221,-1.55127 0.0021,-0.86717 -0.01265,-1.09701 -0.08614,-1.35918 -0.248893,-0.88754 -0.713864,-1.48071 -1.440589,-1.83785 -0.587262,-0.28859 -0.982015,-0.36339 -1.917379,-0.36339 -1.094921,0 -2.055384,0.18096 -3.149888,0.59338 -0.307014,0.11568 -0.495769,0.16463 -0.504251,0.13084 -0.0074,-0.0298 0.106301,-0.40692 0.252717,-0.8381 0.878981,-2.58821 1.909663,-4.58756 3.259872,-6.32341 0.489443,-0.62919 1.457484,-1.62511 2.02959,-2.08799 0.955248,-0.77289 2.228287,-1.50108 3.346706,-1.91432 2.449787,-0.90512 5.777791,-1.0603 7.896232,-0.36799 2.881109,0.94148 4.402972,3.35595 4.734592,7.51149 l 0.032,0.40046 0.22825,-0.20628 c 0.12556,-0.11346 0.980623,-0.89859 1.900213,-1.74475 3.78567,-3.48367 5.9881,-5.05684 7.83665,-5.59766 0.35707,-0.10442 0.57509,-0.13286 1.19357,-0.15552 2.31262,-0.0847 3.91624,0.65511 5.02284,2.31741 1.0085,1.51491 1.4645,3.48374 1.32935,5.74004 -0.0387,0.64573 -0.11172,1.0838 -0.52893,3.17116 -0.77372,3.87154 -1.56545,8.34104 -2.43241,13.73201 -0.28859,1.79474 -0.29582,1.86245 -0.26794,2.50582 0.07,1.61273 0.41053,2.61101 1.14227,3.34845 0.27531,0.27746 0.45649,0.41213 0.7302,0.54255 0.64907,0.30924 1.57949,0.41492 2.21056,0.25105 0.3652,-0.0948 1.12335,-0.45565 1.72132,-0.81919 1.08262,-0.65824 3.4268,-2.45931 3.46636,-2.66329 0.0114,-0.059 0.0897,-0.64247 0.17408,-1.29654 0.0843,-0.65407 0.36813,-2.47801 0.63072,-4.0532 0.5064,-3.03747 0.76614,-4.83937 0.92007,-6.38313 0.12465,-1.25003 0.21524,-2.80032 0.18535,-3.17234 -0.0682,-0.84957 -0.61862,-1.30127 -1.31142,-1.07615 -0.48214,0.15664 -1.49141,0.77497 -2.89335,1.77256 -0.57947,0.41234 -0.70746,0.48486 -0.75912,0.43021 -0.28755,-0.30444 -2.64473,-3.02141 -2.6416,-3.04497 0.002,-0.0167 0.12778,-0.13766 0.27906,-0.26878 0.42104,-0.36472 2.55004,-2.34988 5.10502,-4.76011 3.12361,-2.9466 4.05584,-3.77372 5.35294,-4.7492 0.9834,-0.73959 1.74642,-1.18585 2.3941,-1.40033 0.28337,-0.0938 0.43236,-0.11034 0.96609,-0.10728 0.38002,0.002 0.76622,0.0338 0.97082,0.0793 1.34674,0.29978 2.40245,1.06405 3.27691,2.3722 0.90123,1.34826 1.45178,2.77745 1.70742,4.43203 0.13904,0.9006 0.15211,2.66009 0.0251,3.38828 -0.0454,0.26002 -0.0825,0.49904 -0.0825,0.53123 0,0.0322 0.14746,-0.15872 0.32766,-0.42437 1.24933,-1.84118 3.00298,-3.66707 4.95644,-5.16057 0.54722,-0.41832 1.80462,-1.2544 2.36115,-1.5699 2.77168,-1.57157 5.84731,-2.45118 8.90731,-2.54761 2.85135,-0.0898 4.99196,0.59644 6.45599,2.06964 0.55097,0.55445 0.98097,1.16896 1.3361,1.90917 0.65845,1.37267 0.96887,2.85727 1.03492,4.94922 l 0.0318,1.00621 0.84943,-0.74731 c 0.54625,-0.48054 1.04014,-0.96929 1.38345,-1.36905 0.66123,-0.76976 1.94462,-2.09077 2.71827,-2.79789 3.10936,-2.8419 6.39474,-4.46033 9.97525,-4.91403 0.86272,-0.10929 2.32521,-0.14565 3.05805,-0.076 2.11663,0.2012 3.74347,0.90081 4.87983,2.09842 1.7499,1.84417 2.47725,4.30758 2.30344,7.80098 -0.12472,2.50568 -0.50926,4.84298 -1.5585,9.47239 -1.31864,5.81833 -1.51122,7.04311 -1.35674,8.62929 0.12243,1.25704 0.38446,1.80259 1.03123,2.14736 0.47499,0.25313 0.8883,0.34309 1.71493,0.3732 0.69788,0.0254 0.74432,0.0211 1.11647,-0.10401 0.45705,-0.15365 1.08505,-0.47582 1.7125,-0.87856 0.36472,-0.23409 0.44613,-0.30764 0.42777,-0.3862 -0.0753,-0.32197 -0.13626,-2.03001 -0.11005,-3.08238 0.0846,-3.40163 0.81717,-6.3435 2.36295,-9.48978 1.05432,-2.14597 2.31304,-4.06216 3.98583,-6.0677 4.88922,-5.8617 10.72048,-9.48178 17.27498,-10.7245 2.67692,-0.50752 5.8284,-0.63857 8.15492,-0.33914 4.4134,0.56801 7.17347,2.47677 8.40292,5.81124 0.4008,1.08713 0.62216,2.29544 0.66033,3.60484 0.0401,1.37677 -0.088,2.25811 -0.5183,3.56494 -0.95893,2.91274 -3.13646,5.81061 -6.66956,8.87588 -4.14803,3.59894 -9.26347,6.10998 -15.07866,7.40179 -0.79563,0.17679 -2.26959,0.46907 -2.36525,0.46907 -0.0576,0 0.49271,0.63537 0.8349,0.96387 1.09951,1.05557 2.45751,1.66244 4.15165,1.85536 0.64913,0.0739 3.01299,0.0318 4.12599,-0.0734 4.66103,-0.44092 9.22849,-1.6899 14.59617,-3.99147 l 1.09346,-0.46886 -0.0287,-0.27135 c -0.14927,-1.41188 -0.15226,-3.42325 -0.007,-4.83443 0.38223,-3.71727 1.65923,-7.21359 3.84706,-10.53318 0.88371,-1.34082 1.67321,-2.35503 2.92859,-3.76197 2.68533,-3.00944 5.23371,-5.02026 8.36997,-6.60449 3.57335,-1.80496 7.34463,-2.70862 11.67419,-2.79747 1.84257,-0.0378 3.09287,0.0599 4.56078,0.35658 2.0711,0.4186 3.97833,1.25796 5.57402,2.45306 0.96227,0.72075 2.15647,1.99372 3.04227,3.24298 2.13415,3.00993 3.19083,6.96545 3.06694,11.48001 -0.11304,4.11834 -0.93661,7.79403 -2.5296,11.28903 -1.42599,3.12868 -3.76711,6.35949 -6.37499,8.79774 -4.03012,3.76794 -8.63311,5.85065 -14.18641,6.41886 -0.71755,0.0734 -3.52434,0.13238 -4.19614,0.0882 z m 3.4464,-9.73046 c 2.92303,-0.35457 5.50394,-2.38187 7.70921,-6.05568 2.25832,-3.76211 3.37647,-7.77297 3.2701,-11.72974 -0.0432,-1.60654 -0.24181,-2.80227 -0.68668,-4.13357 -0.40512,-1.21248 -0.81753,-1.94637 -1.37232,-2.44214 -0.58754,-0.5251 -1.12273,-0.66457 -2.24296,-0.58455 -1.2704,0.0908 -2.38826,0.3862 -3.47365,0.91799 -2.0606,1.00961 -3.7667,2.7139 -5.36302,5.35745 -2.06804,3.42478 -3.15795,6.86604 -3.40093,10.73848 -0.12994,2.07158 0.18701,3.7936 0.9964,5.41245 0.56585,1.13176 1.3005,1.93503 2.09473,2.29037 0.59735,0.26724 1.47911,0.349 2.46912,0.22894 z m -45.12372,-8.52083 c 4.49759,-1.79773 8.56337,-4.98029 10.9654,-8.58347 0.74869,-1.12308 1.2211,-2.1865 1.37009,-3.08412 0.0707,-0.42617 0.0357,-1.23028 -0.0735,-1.68732 -0.0868,-0.36319 -0.30827,-0.81773 -0.51128,-1.04897 -0.20196,-0.22998 -0.57092,-0.45816 -0.93355,-0.57732 -0.36375,-0.11951 -1.38511,-0.14363 -1.85662,-0.0438 -2.00769,0.42493 -3.98236,1.96042 -5.97176,4.64373 -2.16071,2.91441 -3.34094,5.66273 -3.61381,8.41495 -0.0704,0.70934 -0.0662,2.1913 0.006,2.1913 0.0308,0 0.30931,-0.10123 0.6189,-0.22498 z m -96.32079,-32.39571 c -1.11404,-0.10004 -2.24525,-0.4163 -2.97476,-0.83163 -0.40296,-0.22936 -1.02769,-0.78478 -1.29988,-1.15555 -0.39238,-0.53456 -0.67868,-1.26629 -0.82461,-2.10773 -0.11367,-0.65512 -0.10102,-1.90063 0.0257,-2.5223 0.25835,-1.26838 0.94684,-2.46307 2.11934,-3.67778 2.18832,-2.26701 4.77882,-3.57321 7.6032,-3.83371 1.73592,-0.16011 2.99116,0.12723 4.05382,0.92792 1.00357,0.75621 1.9162,2.05824 2.26854,3.23638 0.17277,0.57753 0.21427,1.57289 0.095,2.27702 -0.27649,1.63212 -1.18634,3.18034 -2.78308,4.73571 -1.69449,1.65055 -3.5039,2.56638 -5.69068,2.88041 -0.63898,0.0918 -1.95965,0.12806 -2.59252,0.0713 z"
       id="path2933"
       style="fill:#ffffff;fill-opacity:0.93641621" />
    <text
       xml:space="preserve"
       style="font-size:26.39880371px;font-style:normal;font-variant:normal;font-weight:normal;font-stretch:normal;fill:#00004d;fill-opacity:0.5317919;stroke:none;font-family:Droid Sans;-inkscape-font-specification:Droid Sans"
       x="567.50122"
       y="634.66003"
       id="text3911"><tspan
         sodipodi:role="line"
         id="tspan3913"
         x="567.50122"
         y="634.66003">Welcome...</tspan></text>
    <path
       sodipodi:type="arc"
       style="fill:#ffffff;fill-opacity:1;fill-rule:nonzero;stroke:none"
       id="path3919"
       sodipodi:cx="77.368423"
       sodipodi:cy="425.26315"
       sodipodi:rx="97.368423"
       sodipodi:ry="96.842102"
       d="m 174.73685,425.26315 a 97.368423,96.842102 0 1 1 -194.73685,0 97.368423,96.842102 0 1 1 194.73685,0 z"
       transform="translate(56.842105,500.78323)" />
    <path
       sodipodi:type="arc"
       style="fill:#ffffff;fill-opacity:1;fill-rule:nonzero;stroke:none"
       id="path3921"
       sodipodi:cx="226.3158"
       sodipodi:cy="391.57895"
       sodipodi:rx="88.421051"
       sodipodi:ry="88.421051"
       d="m 314.73685,391.57895 a 88.421051,88.421051 0 1 1 -176.84211,0 88.421051,88.421051 0 1 1 176.84211,0 z"
       transform="translate(29.473684,480.78323)" />
    <path
       sodipodi:type="arc"
       style="fill:#ffffff;fill-opacity:1;fill-rule:nonzero;stroke:none"
       id="path3923"
       sodipodi:cx="96.842102"
       sodipodi:cy="277.89474"
       sodipodi:rx="30.526316"
       sodipodi:ry="30.526316"
       d="m 127.36842,277.89474 a 30.526316,30.526316 0 1 1 -61.052634,0 30.526316,30.526316 0 1 1 61.052634,0 z"
       transform="translate(446.31579,628.15165)" />
    <path
       sodipodi:type="arc"
       style="fill:#ffffff;fill-opacity:1;fill-rule:nonzero;stroke:none"
       id="path3925"
       sodipodi:cx="293.1579"
       sodipodi:cy="330.52631"
       sodipodi:rx="74.210526"
       sodipodi:ry="73.684212"
       d="m 367.36842,330.52631 a 74.210526,73.684212 0 1 1 -148.42105,0 74.210526,73.684212 0 1 1 148.42105,0 z"
       transform="translate(71.578947,535.52007)" />
    <path
       sodipodi:type="arc"
       style="fill:#ffffff;fill-opacity:1;fill-rule:nonzero;stroke:none"
       id="path3927"
       sodipodi:cx="232.10527"
       sodipodi:cy="300"
       sodipodi:rx="56.315788"
       sodipodi:ry="50.526318"
       d="m 288.42106,300 a 56.315788,50.526318 0 1 1 -112.63158,0 56.315788,50.526318 0 1 1 112.63158,0 z"
       transform="translate(223.15789,672.36218)" />
    <path
       sodipodi:type="arc"
       style="fill:#ffffff;fill-opacity:1;fill-rule:nonzero;stroke:none"
       id="path3929"
       sodipodi:cx="184.21053"
       sodipodi:cy="498.94736"
       sodipodi:rx="49.473682"
       sodipodi:ry="49.473682"
       d="m 233.68421,498.94736 a 49.473682,49.473682 0 1 1 -98.94737,0 49.473682,49.473682 0 1 1 98.94737,0 z"
       transform="translate(34.736842,506.04639)" />
    <path
       sodipodi:type="arc"
       style="fill:#ffffff;fill-opacity:1;fill-rule:nonzero;stroke:none"
       id="path3931"
       sodipodi:cx="282.10526"
       sodipodi:cy="464.21054"
       sodipodi:rx="89.473686"
       sodipodi:ry="90.526314"
       d="m 371.57894,464.21054 a 89.473686,90.526314 0 1 1 -178.94737,0 89.473686,90.526314 0 1 1 178.94737,0 z"
       transform="translate(34.736842,506.04639)" />
    <path
       sodipodi:type="arc"
       style="fill:#ffffff;fill-opacity:1;fill-rule:nonzero;stroke:none"
       id="path3933"
       sodipodi:cx="-28.947369"
       sodipodi:cy="346.8421"
       sodipodi:rx="77.368423"
       sodipodi:ry="77.368423"
       d="m 48.421055,346.8421 a 77.368423,77.368423 0 1 1 -154.736845,0 77.368423,77.368423 0 1 1 154.736845,0 z"
       transform="translate(56.842105,500.78323)" />
    <path
       sodipodi:type="arc"
       style="fill:#ffffff;fill-opacity:1;fill-rule:nonzero;stroke:none"
       id="path3939"
       sodipodi:cx="261.57895"
       sodipodi:cy="224.73685"
       sodipodi:rx="10"
       sodipodi:ry="10"
       d="m 271.57895,224.73685 a 10,10 0 1 1 -20,0 10,10 0 1 1 20,0 z"
       transform="translate(32.631579,494.46744)" />
    <path
       sodipodi:type="arc"
       style="fill:#ffffff;fill-opacity:1;fill-rule:nonzero;stroke:none"
       id="path4004"
       sodipodi:cx="617.89471"
       sodipodi:cy="340"
       sodipodi:rx="13.684211"
       sodipodi:ry="13.684211"
       d="m 631.57893,340 a 13.684211,13.684211 0 1 1 -27.36843,0 13.684211,13.684211 0 1 1 27.36843,0 z"
       transform="translate(34.736842,586.04639)" />
    <path
       transform="matrix(0.65384616,0,0,0.65384616,189.14981,669.52817)"
       sodipodi:type="arc"
       style="fill:#ffffff;fill-opacity:1;fill-rule:nonzero;stroke:none"
       id="path4004-8"
       sodipodi:cx="617.89471"
       sodipodi:cy="340"
       sodipodi:rx="13.684211"
       sodipodi:ry="13.684211"
       d="m 631.57893,340 a 13.684211,13.684211 0 1 1 -27.36843,0 13.684211,13.684211 0 1 1 27.36843,0 z" />
    <path
       sodipodi:type="arc"
       style="fill:#ffffff;fill-opacity:1;fill-rule:nonzero;stroke:none"
       id="path3931-7"
       sodipodi:cx="282.10526"
       sodipodi:cy="464.21054"
       sodipodi:rx="89.473686"
       sodipodi:ry="90.526314"
       d="m 371.57894,464.21054 a 89.473686,90.526314 0 1 1 -178.94737,0 89.473686,90.526314 0 1 1 178.94737,0 z"
       transform="translate(-242.10525,534.46743)" />
    <path
       sodipodi:type="arc"
       style="fill:#ffffff;fill-opacity:1;fill-rule:nonzero;stroke:none"
       id="path3931-0"
       sodipodi:cx="282.10526"
       sodipodi:cy="464.21054"
       sodipodi:rx="89.473686"
       sodipodi:ry="90.526314"
       d="m 371.57894,464.21054 a 89.473686,90.526314 0 1 1 -178.94737,0 89.473686,90.526314 0 1 1 178.94737,0 z"
       transform="translate(-68.421048,551.30953)" />
    <path
       sodipodi:type="arc"
       style="fill:#ffffff;fill-opacity:1;fill-rule:nonzero;stroke:none"
       id="path3931-5"
       sodipodi:cx="282.10526"
       sodipodi:cy="464.21054"
       sodipodi:rx="89.473686"
       sodipodi:ry="90.526314"
       d="m 371.57894,464.21054 a 89.473686,90.526314 0 1 1 -178.94737,0 89.473686,90.526314 0 1 1 178.94737,0 z"
       transform="translate(-94.736836,543.94111)" />
  </g>
</svg>
