<?xml version="1.0" encoding="UTF-8" standalone="no"?>
<!-- Created with Inkscape (http://www.inkscape.org/) -->

<svg
   xmlns:dc="http://purl.org/dc/elements/1.1/"
   xmlns:cc="http://creativecommons.org/ns#"
   xmlns:rdf="http://www.w3.org/1999/02/22-rdf-syntax-ns#"
   xmlns:svg="http://www.w3.org/2000/svg"
   xmlns="http://www.w3.org/2000/svg"
   xmlns:sodipodi="http://sodipodi.sourceforge.net/DTD/sodipodi-0.dtd"
   xmlns:inkscape="http://www.inkscape.org/namespaces/inkscape"
   version="1.0"
   width="80.580002"
   height="70.839996"
   id="svg2"
   inkscape:version="0.47pre4 r22446"
   sodipodi:docname="vimeoid_logo.svg"
   inkscape:export-filename="/home/shamansir/Workspace/vimeoid/icon.png"
   inkscape:export-xdpi="164.92793"
   inkscape:export-ydpi="164.92793">
  <metadata
     id="metadata8">
    <rdf:RDF>
      <cc:Work
         rdf:about="">
        <dc:format>image/svg+xml</dc:format>
        <dc:type
           rdf:resource="http://purl.org/dc/dcmitype/StillImage" />
        <dc:title></dc:title>
      </cc:Work>
    </rdf:RDF>
  </metadata>
  <sodipodi:namedview
     pagecolor="#ffffff"
     bordercolor="#666666"
     borderopacity="1"
     objecttolerance="10"
     gridtolerance="10"
     guidetolerance="10"
     inkscape:pageopacity="0"
     inkscape:pageshadow="2"
     inkscape:window-width="1185"
     inkscape:window-height="655"
     id="namedview6"
     showgrid="false"
     inkscape:zoom="5.8723888"
     inkscape:cx="40.290001"
     inkscape:cy="35.419998"
     inkscape:window-x="0"
     inkscape:window-y="25"
     inkscape:window-maximized="0"
     inkscape:current-layer="layer1" />
  <defs
     id="defs4">
    <inkscape:perspective
       sodipodi:type="inkscape:persp3d"
       inkscape:vp_x="0 : 46.627293 : 1"
       inkscape:vp_y="0 : 1000 : 0"
       inkscape:vp_z="325 : 46.627293 : 1"
       inkscape:persp3d-origin="162.5 : 31.084862 : 1"
       id="perspective10" />
    <inkscape:perspective
       id="perspective3599"
       inkscape:persp3d-origin="0.5 : 0.33333333 : 1"
       inkscape:vp_z="1 : 0.5 : 1"
       inkscape:vp_y="0 : 1000 : 0"
       inkscape:vp_x="0 : 0.5 : 1"
       sodipodi:type="inkscape:persp3d" />
  </defs>
  <g
     transform="translate(-121.18692,206.34146)"
     id="layer1">
    <path
       sodipodi:type="arc"
       style="fill:#ffffff;fill-opacity:1;fill-rule:nonzero;stroke:#000000;stroke-width:1.99986088;stroke-miterlimit:4;stroke-opacity:1;stroke-dasharray:none"
       id="path3585"
       sodipodi:cx="30.789421"
       sodipodi:cy="25.026184"
       sodipodi:rx="22.536587"
       sodipodi:ry="22.536587"
       d="m 53.326008,25.026184 a 22.536587,22.536587 0 1 1 -45.0731737,0 22.536587,22.536587 0 1 1 45.0731737,0 z"
       transform="matrix(1.3910968,0,0,1.3910968,119.2018,-206.58346)" />
    <path
       d="m 183.63888,-176.81997 c -0.68327,2.06568 -2.18403,5.07213 -3.91529,7.84368 -1.90749,3.05361 -4.81997,7.05056 -7.32183,10.04806 -4.89728,5.86749 -9.09938,9.05183 -12.8061,9.70441 -0.69235,0.1219 -1.72197,0.11492 -2.2427,-0.0152 -2.29731,-0.57415 -4.20421,-2.89746 -5.85782,-7.13723 -0.13988,-0.35853 -0.83533,-2.86849 -2.15953,-7.79389 -1.07426,-3.99583 -2.03638,-7.55483 -2.13799,-7.90888 -0.66628,-2.32174 -1.54238,-4.44979 -2.30705,-5.60433 -0.58745,-0.88684 -1.32367,-1.46441 -1.94741,-1.52757 -0.25282,-0.0256 -0.29359,-0.0148 -0.68616,0.18282 -0.41056,0.20653 -1.59408,0.96752 -2.60756,1.67654 -0.28358,0.19842 -0.5403,0.37486 -0.57046,0.39218 -0.0351,0.0201 -0.43848,-0.46911 -1.12188,-1.36062 -0.58685,-0.76559 -1.09547,-1.42515 -1.13024,-1.46572 -0.0559,-0.0652 0.0312,-0.15819 0.75393,-0.80471 1.20684,-1.07953 3.6539,-3.29873 4.88478,-4.42983 2.21913,-2.03934 3.50611,-3.08647 4.99093,-4.0609 1.58822,-1.04232 2.59208,-1.43938 3.77047,-1.49141 2.96483,-0.13079 4.93384,1.6471 6.00073,5.41829 0.25473,0.9006 0.37038,1.50227 0.75953,3.95184 1.01493,6.38922 1.44359,8.69232 2.1133,11.35355 0.79634,3.16484 1.68147,5.01227 2.62349,5.47604 0.25368,0.12486 0.33126,0.14218 0.56025,0.12467 1.03087,-0.0786 2.50443,-1.6878 4.52658,-4.94326 1.66691,-2.68349 2.67585,-4.8448 3.03378,-6.49907 0.0894,-0.41299 0.10439,-0.62044 0.1063,-1.46948 0.002,-0.82143 -0.012,-1.03916 -0.0816,-1.28751 -0.23577,-0.84073 -0.67622,-1.40263 -1.36463,-1.74094 -0.5563,-0.27337 -0.93024,-0.34423 -1.81628,-0.34423 -1.03719,0 -1.94701,0.17142 -2.9838,0.56209 -0.29083,0.10959 -0.46963,0.15595 -0.47767,0.12394 -0.007,-0.0282 0.1007,-0.38546 0.23939,-0.79391 0.83264,-2.45174 1.80898,-4.34566 3.08799,-5.98999 0.46364,-0.59601 1.38064,-1.53942 1.92258,-1.9779 0.90488,-0.73213 2.11079,-1.42192 3.17024,-1.81338 2.32062,-0.8574 5.47314,-1.00439 7.47988,-0.34858 2.7292,0.89184 4.17082,3.179 4.48496,7.11543 l -0.97311,6.83501 z"
       id="path2933"
       style="fill:#1ca7cc;fill-opacity:1"
       sodipodi:nodetypes="csssssssssssssssssssssssssssssssssssscc" />
  </g>
</svg>
